<?xml version="1.0" encoding="UTF-8"?>
<svg version="1.1" xmlns="http://www.w3.org/2000/svg" width="2000" height="318">
<path d="M0 0 C4.27043244 3.90113404 8.10843688 7.94779504 11.75 12.4375 C12.49765625 13.33597656 13.2453125 14.23445313 14.015625 15.16015625 C30.21257957 35.30448183 40.10334545 58.33854738 45.75 83.4375 C46.10191406 84.94570313 46.10191406 84.94570313 46.4609375 86.484375 C54.281082 125.69843294 44.56307815 168.59110402 22.65234375 201.73046875 C13.98591516 214.06277883 4.52308996 225.92368259 -7.25 235.4375 C-8.1471875 236.18386719 -9.044375 236.93023437 -9.96875 237.69921875 C-43.9096937 264.99767978 -86.59451361 275.79768309 -129.60546875 271.1875 C-170.35742847 266.18743188 -208.39639521 244.76705966 -233.78955078 212.47998047 C-260.0675403 177.9669582 -271.78282361 135.21821575 -265.99609375 92.12890625 C-259.67239962 50.20449932 -237.34400568 12.0504366 -203.14575195 -13.21166992 C-139.69536518 -58.70044988 -57.47120788 -50.52604681 0 0 Z M-215.734375 16.640625 C-242.81482685 46.74870501 -254.86223106 84.21286683 -253.41845703 124.36669922 C-251.42913156 160.63008449 -234.12178663 194.95570476 -208.078125 219.94921875 C-176.4488285 247.77775724 -139.23227688 260.32426792 -97.25 258.4375 C-90.82495573 257.91264715 -84.54234323 256.81707536 -78.25 255.4375 C-77.51120605 255.27652832 -76.77241211 255.11555664 -76.01123047 254.94970703 C-53.67099541 249.86638797 -33.60940027 239.29645685 -16.25 224.4375 C-15.43015625 223.74011719 -14.6103125 223.04273438 -13.765625 222.32421875 C14.38181846 197.71705933 32.01184812 162.79833048 34.75 125.4375 C36.66174014 87.37406824 25.93067416 50.48449814 0.75 21.4375 C0.05390625 20.62023437 -0.6421875 19.80296875 -1.359375 18.9609375 C-24.88373892 -7.98363536 -59.10008965 -26.38699476 -94.98242188 -29.41748047 C-141.25674723 -32.376885 -183.42191774 -16.83275887 -215.734375 16.640625 Z " fill="#C9EFC7" transform="translate(268.25,44.5625)"/>
<path d="M0 0 C0.85142578 0.04833984 1.70285156 0.09667969 2.58007812 0.14648438 C17.95569535 1.07159767 17.95569535 1.07159767 21.1875 2.6875 C21.1875 2.0275 21.1875 1.3675 21.1875 0.6875 C21.75815186 0.71779297 22.32880371 0.74808594 22.91674805 0.77929688 C40.56722385 1.6641178 58.20519822 1.79885093 75.875 1.8125 C76.98628265 1.81499756 78.09756531 1.81749512 79.24252319 1.82006836 C95.24781927 1.84952099 111.20042286 1.4523225 127.1875 0.6875 C127.5175 2.9975 127.8475 5.3075 128.1875 7.6875 C122.2475 9.1725 122.2475 9.1725 116.1875 10.6875 C116.19910156 11.90566406 116.21070313 13.12382812 116.22265625 14.37890625 C116.23204178 16.00260262 116.24114116 17.62630067 116.25 19.25 C116.25837891 20.04986328 116.26675781 20.84972656 116.27539062 21.67382812 C116.29492828 26.46055329 115.86550032 30.94149776 115.1875 35.6875 C114.29491431 43.9251483 116.79722099 51.21730041 119.25 59 C119.659424 60.3300406 120.0681914 61.66028348 120.47631836 62.99072266 C123.76971359 73.65282506 127.35326645 84.20808354 131.1875 94.6875 C148.86097643 54.7184419 148.86097643 54.7184419 148.19140625 12.7265625 C147.1537567 10.61896303 145.98968049 9.06789075 144.4375 7.3125 C143.695 6.44625 142.9525 5.58 142.1875 4.6875 C142.5175 3.6975 142.8475 2.7075 143.1875 1.6875 C144.28251831 1.69535522 144.28251831 1.69535522 145.3996582 1.70336914 C148.76642974 1.72439317 152.13318739 1.73724002 155.5 1.75 C157.22186523 1.76256836 157.22186523 1.76256836 158.97851562 1.77539062 C166.10881349 1.79558977 173.10094572 1.48468119 180.1875 0.6875 C180.5175 2.9975 180.8475 5.3075 181.1875 7.6875 C175.2475 9.1725 175.2475 9.1725 169.1875 10.6875 C169.5175 12.0075 169.8475 13.3275 170.1875 14.6875 C172.56867179 38.31605084 159.6019469 61.63709328 149.25 81.875 C148.26923342 83.81136865 147.28941068 85.74821565 146.31054688 87.68554688 C143.94699287 92.35842562 141.57093441 97.02473226 139.1875 101.6875 C141.8275 103.0075 144.4675 104.3275 147.1875 105.6875 C146.8575 107.6675 146.5275 109.6475 146.1875 111.6875 C145.48077148 111.6160376 144.77404297 111.5445752 144.04589844 111.47094727 C136.15607924 110.73553185 128.35772594 110.56676304 120.4375 110.625 C119.2515625 110.62951172 118.065625 110.63402344 116.84375 110.63867188 C113.95827772 110.65030684 111.07291787 110.6666516 108.1875 110.6875 C108.81465832 106.04652843 108.81465832 106.04652843 110.75585938 104.17724609 C112.41443397 102.76264824 112.41443397 102.76264824 112.38476562 100.46728516 C111.52944625 92.77945646 109.77618767 85.50292557 107.6875 78.0625 C107.20603516 76.28939453 107.20603516 76.28939453 106.71484375 74.48046875 C105.68547171 69.20642097 105.68547171 69.20642097 103.1875 64.6875 C102.7435791 65.6662207 102.2996582 66.64494141 101.84228516 67.65332031 C100.19185044 71.291528 98.54041144 74.92927908 96.88867188 78.56689453 C96.17453133 80.14001265 95.46066158 81.71325373 94.74707031 83.28662109 C93.72011696 85.55078147 92.69218404 87.81449489 91.6640625 90.078125 C91.34627838 90.77931458 91.02849426 91.48050415 90.70108032 92.20294189 C89.24966257 95.39620703 87.75659111 98.54931778 86.1875 101.6875 C88.8275 103.0075 91.4675 104.3275 94.1875 105.6875 C94.1875 107.3375 94.1875 108.9875 94.1875 110.6875 C91.61976413 111.97136793 90.26019727 111.59153712 87.41796875 111.25390625 C80.76744431 110.57745291 74.17908922 110.57624752 67.5 110.625 C66.30955078 110.62951172 65.11910156 110.63402344 63.89257812 110.63867188 C60.99083064 110.65032548 58.08919374 110.66668441 55.1875 110.6875 C55.81366297 106.05389401 55.81366297 106.05389401 57.75708008 104.14916992 C59.39398983 102.78410177 59.39398983 102.78410177 59.3737793 100.6574707 C58.47230209 93.5654092 56.87537865 86.76988606 55 79.875 C54.49509033 77.99542603 54.49509033 77.99542603 53.97998047 76.07788086 C49.26483936 58.76737575 43.76731409 41.67387928 38.3441925 24.57516479 C36.88530984 19.96423336 35.49112234 15.34480224 34.1875 10.6875 C28.52107449 9.46232692 22.95041482 9.59521133 17.1875 9.6875 C15.90951773 15.95505135 14.72261216 22.22853331 13.65234375 28.53515625 C13.1875 30.6875 13.1875 30.6875 12.1875 31.6875 C10.2075 31.6875 8.2275 31.6875 6.1875 31.6875 C5.5275 27.0675 4.8675 22.4475 4.1875 17.6875 C-6.16459833 14.41841632 -16.43483333 12.4680243 -26.6875 17.18359375 C-34.03442776 22.38316578 -35.30842511 33.4252508 -36.8125 41.6875 C-37.1585965 44.01897438 -37.49521506 46.3519303 -37.8125 48.6875 C-33.31272116 48.80440073 -28.81333713 48.87498837 -24.3125 48.9375 C-23.0440625 48.97101563 -21.775625 49.00453125 -20.46875 49.0390625 C-13.1038355 49.11578036 -8.00703386 48.82741124 -1.8125 44.6875 C-1.3175 43.6975 -1.3175 43.6975 -0.8125 42.6875 C2.1575 43.1825 2.1575 43.1825 5.1875 43.6875 C5.02378906 44.61691406 4.86007812 45.54632813 4.69140625 46.50390625 C3.97270824 51.53479229 4.07993687 56.55366509 4.125 61.625 C4.12951172 62.59501953 4.13402344 63.56503906 4.13867188 64.56445312 C4.1503685 66.9388676 4.16675914 69.31315021 4.1875 71.6875 C2.2075 71.6875 0.2275 71.6875 -1.8125 71.6875 C-2.01746094 70.90503906 -2.22242188 70.12257813 -2.43359375 69.31640625 C-2.70300781 68.30449219 -2.97242188 67.29257813 -3.25 66.25 C-3.51683594 65.24066406 -3.78367187 64.23132813 -4.05859375 63.19140625 C-4.57228077 60.76997999 -4.57228077 60.76997999 -5.8125 59.6875 C-8.1881852 59.5991033 -10.53458674 59.57219695 -12.91015625 59.58984375 C-13.61901474 59.5912587 -14.32787323 59.59267365 -15.05821228 59.59413147 C-17.33051712 59.59974557 -19.60272475 59.61230037 -21.875 59.625 C-23.41210796 59.63001319 -24.94921745 59.63457641 -26.48632812 59.63867188 C-30.26175642 59.64971958 -34.03711171 59.66699359 -37.8125 59.6875 C-37.52086901 61.88742028 -37.22270068 64.08647442 -36.921875 66.28515625 C-36.6738916 68.12219116 -36.6738916 68.12219116 -36.42089844 69.99633789 C-34.99751626 78.63201811 -32.73973991 86.90916817 -25.8125 92.6875 C-19.23433726 97.02628819 -11.4380309 96.39164136 -3.8125 95.6875 C3.75503568 93.96247151 9.38511203 89.67699304 15.1875 84.6875 C17.1675 85.6775 17.1675 85.6775 19.1875 86.6875 C18.72385489 91.01485432 15.94117527 93.50888789 13 96.4375 C12.4733374 96.9639209 11.9466748 97.4903418 11.40405273 98.03271484 C4.53225036 104.61815025 -6.0290097 112.41759986 -15.7578125 112.8046875 C-28.81402082 111.81023429 -37.92616216 108.63396235 -46.8125 98.6875 C-56.50059068 85.6474117 -58.10401306 70.85355299 -56.421875 55.0078125 C-54.18384814 41.43618811 -48.0662482 28.89442398 -38.8125 18.6875 C-37.84957031 17.56988281 -37.84957031 17.56988281 -36.8671875 16.4296875 C-27.06847788 5.76319548 -14.57144546 -1.01205708 0 0 Z M56.1875 9.6875 C55.15409198 12.90859588 55.25268898 15.11776097 55.9375 18.4140625 C56.12981201 19.34935791 56.32212402 20.28465332 56.52026367 21.24829102 C56.74045166 22.25947998 56.96063965 23.27066895 57.1875 24.3125 C57.53035034 25.90952759 57.53035034 25.90952759 57.88012695 27.53881836 C61.83254094 45.5451373 66.90865922 63.19325585 72.5 80.75 C72.71868744 81.443284 72.93737488 82.13656799 73.16268921 82.8508606 C73.78350889 84.81100095 74.4151167 86.76728675 75.05078125 88.72265625 C75.41469971 89.8506665 75.77861816 90.97867676 76.15356445 92.14086914 C76.91796886 94.8279412 76.91796886 94.8279412 79.1875 95.6875 C86.40019583 76.81686784 86.40019583 76.81686784 92.6875 57.625 C92.91775879 56.8609082 93.14801758 56.09681641 93.38525391 55.30957031 C97.11586117 42.49071874 100.92271481 26.6017222 96.1875 13.6875 C93.00035171 10.41862996 90.28613817 8.79507043 85.66308594 8.55810547 C84.67598633 8.55697754 83.68888672 8.55584961 82.671875 8.5546875 C81.58519531 8.55339844 80.49851562 8.55210938 79.37890625 8.55078125 C78.24324219 8.55464844 77.10757812 8.55851562 75.9375 8.5625 C74.81730469 8.55863281 73.69710938 8.55476563 72.54296875 8.55078125 C66.98649033 8.55734144 61.6585376 8.69132841 56.1875 9.6875 Z " fill="#30C48D" transform="translate(1817.8125,115.3125)"/>
<path d="M0 0 C7.90329861 0.73538925 15.716341 0.87606673 23.65087891 0.82006836 C24.88451172 0.81555664 26.11814453 0.81104492 27.38916016 0.80639648 C30.3931196 0.79475323 33.39697157 0.77840212 36.40087891 0.75756836 C36.89587891 3.72756836 36.89587891 3.72756836 37.40087891 6.75756836 C35.09087891 8.07756836 32.78087891 9.39756836 30.40087891 10.75756836 C30.00114033 18.43402961 31.10083604 25.15434767 33.02587891 32.57006836 C33.46492554 34.30111816 33.46492554 34.30111816 33.9128418 36.06713867 C39.00037679 55.50288896 45.30600695 74.61999994 51.40087891 93.75756836 C51.69631592 92.7657959 51.99175293 91.77402344 52.29614258 90.75219727 C53.45828059 86.85323881 54.62328662 82.95514137 55.78900146 79.05725098 C56.32127717 77.27627932 56.85289504 75.49511094 57.3838501 73.71374512 C60.55529316 63.07699149 63.7898639 52.46517697 67.16259766 41.89038086 C67.77256412 39.96644848 68.38234848 38.04245835 68.99194336 36.1184082 C69.87903835 33.31929475 70.77108515 30.52230272 71.67953491 27.7300415 C72.52405099 25.13377314 73.35076233 22.53242277 74.17431641 19.92944336 C74.55924507 18.772686 74.55924507 18.772686 74.95195007 17.59255981 C76.25047871 13.50684644 76.25047871 13.50684644 75.67285156 9.35620117 C74.13628756 7.4250263 72.44827734 6.12250065 70.40087891 4.75756836 C70.73087891 3.43756836 71.06087891 2.11756836 71.40087891 0.75756836 C90.21087891 0.75756836 109.02087891 0.75756836 128.40087891 0.75756836 C128.73087891 2.73756836 129.06087891 4.71756836 129.40087891 6.75756836 C126.63097926 7.42833325 123.86008149 8.09433153 121.08837891 8.75756836 C120.30269531 8.94834961 119.51701172 9.13913086 118.70751953 9.33569336 C117.95019531 9.51616211 117.19287109 9.69663086 116.41259766 9.88256836 C115.71610107 10.05014648 115.01960449 10.21772461 114.30200195 10.39038086 C112.40087891 10.75756836 112.40087891 10.75756836 109.40087891 10.75756836 C108.04754621 48.64047366 110.57744467 89.59305815 118.40087891 126.75756836 C120.22619141 127.15975586 120.22619141 127.15975586 122.08837891 127.57006836 C128.20138751 128.9274297 134.30082341 130.34333602 140.40087891 131.75756836 C140.40087891 133.73756836 140.40087891 135.71756836 140.40087891 137.75756836 C139.81411377 137.72727539 139.22734863 137.69698242 138.62280273 137.66577148 C118.13406387 136.63148897 97.87786178 136.44704146 77.40087891 137.75756836 C77.40087891 135.77756836 77.40087891 133.79756836 77.40087891 131.75756836 C78.68697096 131.26363445 79.98029519 130.78854067 81.27587891 130.32006836 C81.99517578 130.05323242 82.71447266 129.78639648 83.45556641 129.51147461 C87.71924395 128.42010887 92.02233256 128.1149029 96.40087891 127.75756836 C95.54646483 103.9051754 94.35546557 80.10990071 92.40087891 56.32006836 C92.31729126 55.28761993 92.23370361 54.25517151 92.14758301 53.19143677 C91.23312774 41.98712385 90.19744179 30.86066146 88.40087891 19.75756836 C81.85059827 37.94902131 75.49184113 56.19858369 69.46337891 74.57006836 C69.18143677 75.42272278 68.89949463 76.2753772 68.60900879 77.15386963 C65.4403153 86.76377031 62.75498587 96.15790077 60.96337891 106.13256836 C59.81750594 112.21627701 58.2934307 115.65257736 53.31469727 119.47875977 C51.50626434 120.68715008 49.68102593 121.77238063 47.77587891 122.82006836 C44.28668664 124.6114286 44.28668664 124.6114286 41.71337891 127.57006836 C40.95025391 128.29194336 40.18712891 129.01381836 39.40087891 129.75756836 C37.08837891 129.57006836 37.08837891 129.57006836 35.40087891 128.75756836 C35.38669922 127.89260742 35.37251953 127.02764648 35.35791016 126.13647461 C33.99018391 90.02110862 20.40393842 53.88843307 9.40087891 19.75756836 C6.76888437 34.93785913 4.63201676 50.16093824 2.71337891 65.44506836 C2.60514801 66.29770264 2.49691711 67.15033691 2.38540649 68.02880859 C0.63720204 81.84967283 -0.76388333 95.62303967 -0.84912109 109.57006836 C-0.86974609 110.4330957 -0.89037109 111.29612305 -0.91162109 112.18530273 C-0.94717846 118.08338118 -0.21621731 123.40540647 2.40087891 128.75756836 C4.89120296 131.30649833 4.89120296 131.30649833 7.40087891 132.75756836 C7.07087891 134.07756836 6.74087891 135.39756836 6.40087891 136.75756836 C5.56129639 136.75233154 4.72171387 136.74709473 3.85668945 136.74169922 C-11.99160594 136.6560562 -27.78060806 136.62911393 -43.59912109 137.75756836 C-43.92912109 135.77756836 -44.25912109 133.79756836 -44.59912109 131.75756836 C-37.94079524 129.14355895 -31.71450722 128.19332862 -24.59912109 127.75756836 C-24.50736099 127.08429001 -24.41560089 126.41101166 -24.32106018 125.71733093 C-22.67810837 114.35959824 -20.3435198 103.14563857 -18.06396484 91.90209961 C-17.62063414 89.7059028 -17.17748635 87.50966905 -16.73451233 85.31340027 C-15.81103653 80.73832308 -14.88542391 76.16368499 -13.95825195 71.58935547 C-12.76831966 65.71780795 -11.58371344 59.84520053 -10.4006567 53.97226429 C-9.48912476 49.45013095 -8.57486643 44.92855224 -7.65976143 40.40714073 C-7.2215396 38.24029057 -6.78416293 36.0732693 -6.34763908 33.90607643 C-5.74014339 30.89221922 -5.12899987 27.87912488 -4.5168457 24.86621094 C-4.3365683 23.96810196 -4.15629089 23.06999298 -3.97055054 22.14466858 C-3.80378311 21.32770508 -3.63701569 20.51074158 -3.4651947 19.66902161 C-3.32122725 18.95768979 -3.17725981 18.24635798 -3.02892971 17.51347065 C-2.59912109 15.75756836 -2.59912109 15.75756836 -1.59912109 13.75756836 C-2.25912109 14.08756836 -2.91912109 14.41756836 -3.59912109 14.75756836 C-5.76369659 14.91467465 -7.93110968 15.03359393 -10.09912109 15.13256836 C-17.39038552 15.61166582 -26.21177187 16.20148784 -31.59912109 21.75756836 C-32.12223945 24.8177387 -32.12223945 24.8177387 -31.91162109 28.19506836 C-31.88712891 29.3281543 -31.86263672 30.46124023 -31.83740234 31.62866211 C-31.64452396 34.16137664 -31.33017501 36.33855255 -30.59912109 38.75756836 C-32.11985151 40.29933655 -33.66664621 41.81542817 -35.22412109 43.32006836 C-36.08263672 44.16698242 -36.94115234 45.01389648 -37.82568359 45.88647461 C-40.59912109 47.75756836 -40.59912109 47.75756836 -43.87255859 47.65991211 C-44.77232422 47.36213867 -45.67208984 47.06436523 -46.59912109 46.75756836 C-48.38649324 43.18282406 -48.16974178 39.6064608 -47.59912109 35.75756836 C-42.93609209 22.65837237 -33.23082223 12.3701397 -22.59912109 3.75756836 C-22.02806641 3.28061523 -21.45701172 2.80366211 -20.86865234 2.31225586 C-14.86765257 -1.92548719 -6.91768306 -0.64524322 0 0 Z " fill="#30C48D" transform="translate(429.59912109375,89.242431640625)"/>
<path d="M0 0 C-0.14008671 3.5210863 -0.28810982 7.04179712 -0.4375 10.5625 C-0.47681641 11.55314453 -0.51613281 12.54378906 -0.55664062 13.56445312 C-0.78172346 18.77598637 -1.14105239 23.85353238 -2 29 C-0.35 29 1.3 29 3 29 C2.89171875 27.99646484 2.89171875 27.99646484 2.78125 26.97265625 C1.91071752 17.96506318 1.90362921 9.03743859 2 0 C9.96053279 0.12635766 14.4473618 2.26992787 20 8 C25.21186009 14.55937092 26.94509776 20.7717625 28 29 C32.62 29 37.24 29 42 29 C42 31.97 42 34.94 42 38 C40.68 38.33 39.36 38.66 38 39 C35.03 71.175 35.03 71.175 32 104 C11.87 104 -8.26 104 -29 104 C-31.30366566 84.4188419 -31.30366566 84.4188419 -32.0703125 75.63671875 C-32.19924393 74.18879692 -32.19924393 74.18879692 -32.33078003 72.71162415 C-32.50831402 70.71158041 -32.68468024 68.71143267 -32.85986328 66.71118164 C-33.12860808 63.64635261 -33.40195453 60.58195689 -33.67578125 57.51757812 C-33.84922612 55.55731534 -34.02241305 53.59702972 -34.1953125 51.63671875 C-34.27653351 50.72637375 -34.35775452 49.81602875 -34.44143677 48.87809753 C-34.51506439 48.03233658 -34.58869202 47.18657562 -34.66455078 46.31518555 C-34.72957794 45.57592331 -34.7946051 44.83666107 -34.86160278 44.07499695 C-34.99640081 42.05396291 -35 40.0255244 -35 38 C-36.65 38 -38.3 38 -40 38 C-40 35.03 -40 32.06 -40 29 C-35.71 29 -31.42 29 -27 29 C-26.938125 27.72125 -26.87625 26.4425 -26.8125 25.125 C-25.77025383 16.0446087 -21.09063738 8.64421024 -14 3 C-9.35432654 0.21259593 -5.29567374 -1.76522458 0 0 Z M-14 21 C-15.76462683 24.08809695 -16 25.23312136 -16 29 C-14.68 28.67 -13.36 28.34 -12 28 C-12 25.69 -12 23.38 -12 21 C-12.66 21 -13.32 21 -14 21 Z M14 21 C14 23.64 14 26.28 14 29 C14.99 29 15.98 29 17 29 C16.74438677 26.6568787 16.40729228 24.32156597 16 22 C15.34 21.67 14.68 21.34 14 21 Z " fill="#C9EFC7" transform="translate(132,122)"/>
<path d="M0 0 C1.40185547 0.10828125 1.40185547 0.10828125 2.83203125 0.21875 C10.53906934 0.7633101 18.21012144 1.10656673 25.9375 1.125 C26.70489502 1.12951172 27.47229004 1.13402344 28.26293945 1.13867188 C33.57527584 1.12492567 38.72851578 0.65958988 44 0 C44.25 2.3125 44.25 2.3125 44 5 C42 6.8125 42 6.8125 40 8 C40.59648046 12.1451617 41.96017494 15.07889369 44.0625 18.6875 C44.40337646 19.27362061 44.74425293 19.85974121 45.09545898 20.46362305 C49.48367131 27.93629673 54.07513177 35.28916134 58.63183594 42.65966797 C65.36858892 53.56269433 71.96648766 64.54566558 78.53637695 75.55004883 C80.02107624 78.03527941 81.50982964 80.5180468 83 83 C83.0512421 76.42044449 83.08595792 69.84094154 83.10986328 63.26123047 C83.11984247 61.02878903 83.1334306 58.7963604 83.15087891 56.56396484 C83.82845975 32.62723503 83.82845975 32.62723503 77 10 C74.3908613 7.67722584 74.3908613 7.67722584 72 6 C71.859375 3.3984375 71.859375 3.3984375 72 1 C72.648479 1.00523682 73.29695801 1.01047363 73.96508789 1.01586914 C86.35493251 1.10252675 98.65207299 1.1081473 111 0 C111.495 2.97 111.495 2.97 112 6 C110.25183142 6.50636607 108.50137737 7.00484619 106.75 7.5 C105.77546875 7.7784375 104.8009375 8.056875 103.796875 8.34375 C101 9 101 9 97 9 C97 39.69 97 70.38 97 102 C102.94 102.99 102.94 102.99 109 104 C109.66 104.33 110.32 104.66 111 105 C111 107.31 111 109.62 111 112 C110.14921875 111.855625 109.2984375 111.71125 108.421875 111.5625 C97.57064233 109.90018351 86.96263537 109.79966758 76 110 C75.8055127 109.37053467 75.61102539 108.74106934 75.41064453 108.0925293 C72.60336774 99.67904941 68.41592388 92.3647012 63.875 84.8125 C63.09963814 83.50753099 62.32490405 82.20218879 61.55078125 80.89648438 C57.43216494 73.96806516 53.24278477 67.08719124 48.91015625 60.2902832 C41.60271657 48.73926467 34.87538679 36.81100929 28 25 C27.92280062 31.91520889 27.87092833 38.83030345 27.83520508 45.74584961 C27.82028464 48.08964184 27.79994104 50.43340699 27.77368164 52.77709961 C27.59387191 69.25965868 27.74046787 85.22140362 33 101 C41.415 102.485 41.415 102.485 50 104 C51.04449911 107.13349732 50.93423645 107.98968256 50 111 C49.030625 110.9278125 48.06125 110.855625 47.0625 110.78125 C33.65289603 109.83162835 20.37209054 109.64984234 6.96289062 110.73193359 C5.31097637 110.85787741 3.65539137 110.93395478 2 111 C1 110 1 110 0.9375 107.4375 C0.9684375 106.2309375 0.9684375 106.2309375 1 105 C2.24663331 104.49166409 3.49749387 103.99368855 4.75 103.5 C5.44609375 103.2215625 6.1421875 102.943125 6.859375 102.65625 C9 102 9 102 13 102 C14.02135582 87.91855106 14.15472132 73.87470968 14.13037109 59.76000977 C14.12501436 56.07238648 14.13034599 52.38488522 14.13671875 48.69726562 C14.1400566 35.43166057 13.89516528 22.23682325 13 9 C11.741875 8.85691406 10.48375 8.71382812 9.1875 8.56640625 C5.84320651 8.1860614 3.07066746 7.43937537 0 6 C0 4.02 0 2.04 0 0 Z " fill="#30C48D" transform="translate(1179,116)"/>
<path d="M0 0 C1.40185547 0.10828125 1.40185547 0.10828125 2.83203125 0.21875 C10.53906934 0.7633101 18.21012144 1.10656673 25.9375 1.125 C26.70489502 1.12951172 27.47229004 1.13402344 28.26293945 1.13867188 C33.57527584 1.12492567 38.72851578 0.65958988 44 0 C44 1.65 44 3.3 44 5 C42.02 5.99 42.02 5.99 40 7 C40.38055776 13.48677998 42.82246457 17.69336886 46.25 23.125 C46.78794189 23.99898437 47.32588379 24.87296875 47.88012695 25.7734375 C49.57559824 28.52271771 51.28693754 31.26165468 53 34 C54.03102299 35.66339662 55.06099864 37.32744294 56.08984375 38.9921875 C57.64469759 41.50709524 59.20069729 44.02123398 60.76147461 46.5324707 C68.27381084 58.62727601 75.62669077 70.82014919 83 83 C83.05006564 76.88428898 83.08602903 70.76870164 83.10986328 64.65283203 C83.119817 62.57956866 83.13338483 60.50631893 83.15087891 58.43310547 C83.73529951 33.60107577 83.73529951 33.60107577 77 10 C74.41139607 7.6090093 74.41139607 7.6090093 72 6 C71.859375 3.40234375 71.859375 3.40234375 72 1 C72.648479 1.00523682 73.29695801 1.01047363 73.96508789 1.01586914 C86.35493251 1.10252675 98.65207299 1.1081473 111 0 C111 1.98 111 3.96 111 6 C109.4188708 6.50692692 107.83498617 7.00526443 106.25 7.5 C105.36828125 7.7784375 104.4865625 8.056875 103.578125 8.34375 C101 9 101 9 97 9 C95.33485936 39.91581603 95.19120554 71.08899462 97 102 C97.75925781 102.13277344 98.51851562 102.26554687 99.30078125 102.40234375 C100.29464844 102.57894531 101.28851562 102.75554687 102.3125 102.9375 C103.29863281 103.11152344 104.28476563 103.28554687 105.30078125 103.46484375 C108 104 108 104 111 105 C110.67 107.31 110.34 109.62 110 112 C109.13761719 111.855625 108.27523438 111.71125 107.38671875 111.5625 C96.87073992 109.96344937 86.62355744 109.79416143 76 110 C75.79101074 109.34225586 75.58202148 108.68451172 75.36669922 108.00683594 C72.81691525 100.4624517 69.31466927 93.99918609 65.125 87.25 C64.46516113 86.16871826 63.80532227 85.08743652 63.12548828 83.97338867 C61.09196516 80.64375523 59.04620154 77.32185241 57 74 C54.62029959 70.10702533 52.24771174 66.20973682 49.875 62.3125 C49.3075708 61.3829248 48.7401416 60.45334961 48.15551758 59.49560547 C42.44512846 50.12767187 36.8664113 40.68307241 31.31176758 31.22216797 C29.88639821 28.80755565 28.44513258 26.40282699 27 24 C26.70359701 49.5159014 26.70359701 49.5159014 27.8125 75 C27.88259277 76.04583252 27.95268555 77.09166504 28.02490234 78.16918945 C28.53719558 84.49002903 29.69922756 90.39009741 31.38549805 96.50390625 C32 99 32 99 32 102 C32.88042969 102.06058594 33.76085937 102.12117188 34.66796875 102.18359375 C36.41013672 102.30927734 36.41013672 102.30927734 38.1875 102.4375 C39.91033203 102.55931641 39.91033203 102.55931641 41.66796875 102.68359375 C44.51598171 102.95403812 47.21210482 103.37521747 50 104 C50 106.31 50 108.62 50 111 C49.030625 110.9278125 48.06125 110.855625 47.0625 110.78125 C31.63206426 109.68838234 16.42333738 109.93105582 1 111 C1 108.69 1 106.38 1 104 C2.85625 103.505 2.85625 103.505 4.75 103 C5.44609375 102.814375 6.1421875 102.62875 6.859375 102.4375 C9 102 9 102 13 102 C14.63648341 71.05044272 14.63648341 39.94955728 13 9 C11.12828125 8.78537109 11.12828125 8.78537109 9.21875 8.56640625 C5.61390978 8.15304131 2.40860389 7.27822646 -1 6 C-0.67 4.02 -0.34 2.04 0 0 Z " fill="#30C48D" transform="translate(983,116)"/>
<path d="M0 0 C1.51520788 -0.01175001 3.03038556 -0.02871927 4.54547119 -0.05126953 C16.22520022 -0.21549274 29.90804001 -0.27680665 38.98574829 8.23217773 C43.39999097 14.57684723 44.70622072 21.58716474 43.98574829 29.23217773 C42.46823986 37.32126927 39.30783056 43.90749907 32.70059204 48.98999023 C30.49677861 50.47353294 28.26524109 51.86882394 25.98574829 53.23217773 C24.99574829 53.89217773 24.00574829 54.55217773 22.98574829 55.23217773 C23.3991748 56.05117554 23.3991748 56.05117554 23.82095337 56.88671875 C24.66114105 58.5534114 25.49958684 60.22098266 26.33682251 61.88916016 C27.32132129 63.84648056 28.31134863 65.8010288 29.30654907 67.75292969 C31.96377599 73.00670668 34.46143596 78.26558863 36.70840454 83.70874023 C40.5594037 94.71272776 40.5594037 94.71272776 48.56777954 102.34155273 C51.85663795 103.09695683 54.62647795 103.44046318 57.98574829 103.23217773 C57.65574829 105.54217773 57.32574829 107.85217773 56.98574829 110.23217773 C56.32574829 110.15999023 55.66574829 110.08780273 54.98574829 110.01342773 C43.3362873 108.92129077 31.67452864 109.13928487 19.98574829 109.23217773 C19.10877653 106.36983936 18.87925929 105.51171136 19.98574829 102.60717773 C23.71256526 90.02917045 15.7006397 75.1498418 10.22158813 63.97949219 C7.98574829 59.41294742 7.98574829 59.41294742 7.98574829 57.23217773 C6.91324829 57.25280273 5.84074829 57.27342773 4.73574829 57.29467773 C1.83784405 57.24637933 -0.30037311 57.10061888 -3.01425171 56.23217773 C-2.63925171 53.29467773 -2.63925171 53.29467773 -2.01425171 50.23217773 C0.55294609 48.94857884 2.88974303 48.79843714 5.73574829 48.41967773 C12.36239982 47.33373125 16.1280422 45.64217482 20.29824829 40.23217773 C23.65175197 34.27039341 23.93159478 27.5964773 22.48965454 20.94311523 C20.9771618 16.38000154 19.17355058 13.82462677 14.98574829 11.23217773 C11.19566243 9.43075703 8.23294835 8.98543488 4.04824829 9.04467773 C3.04922485 9.05112305 2.05020142 9.05756836 1.02090454 9.06420898 C-2.05484591 9.23442426 -4.98215026 9.70404261 -8.01425171 10.23217773 C-9.31837727 40.61206011 -9.31837727 70.85229536 -8.01425171 101.23217773 C-6.80188843 101.3056543 -6.80188843 101.3056543 -5.56503296 101.38061523 C-4.49640015 101.45538086 -3.42776733 101.53014648 -2.32675171 101.60717773 C-1.27100952 101.67678711 -0.21526733 101.74639648 0.87246704 101.81811523 C3.89252098 102.21977862 6.22652883 102.97286792 8.98574829 104.23217773 C8.65574829 106.21217773 8.32574829 108.19217773 7.98574829 110.23217773 C7.10016235 110.15999023 6.21457642 110.08780273 5.30215454 110.01342773 C-9.88089007 108.87588433 -24.8375851 109.08831053 -40.01425171 110.23217773 C-40.50925171 107.26217773 -40.50925171 107.26217773 -41.01425171 104.23217773 C-39.60028269 103.72459911 -38.18293442 103.22642849 -36.76425171 102.73217773 C-35.97534546 102.45374023 -35.18643921 102.17530273 -34.37362671 101.88842773 C-32.01425171 101.23217773 -32.01425171 101.23217773 -28.01425171 101.23217773 C-27.01156394 86.53903326 -26.85912458 71.88403777 -26.88388062 57.15991211 C-26.889272 53.34281498 -26.88388664 49.52583396 -26.87753296 45.70874023 C-26.87819337 43.23998998 -26.87947376 40.7712398 -26.88143921 38.30249023 C-26.87941498 37.18238556 -26.87739075 36.06228088 -26.87530518 34.90823364 C-26.62325028 21.88725363 -26.62325028 21.88725363 -29.01425171 9.23217773 C-31.8059741 8.19901286 -31.8059741 8.19901286 -35.07675171 7.54467773 C-36.18147827 7.29331055 -37.28620483 7.04194336 -38.42440796 6.78295898 C-39.2790564 6.60120117 -40.13370483 6.41944336 -41.01425171 6.23217773 C-41.01425171 4.58217773 -41.01425171 2.93217773 -41.01425171 1.23217773 C-27.3499562 0.51108649 -13.68260254 0.09055258 0 0 Z " fill="#30C48D" transform="translate(1527.0142517089844,116.767822265625)"/>
<path d="M0 0 C9.77660717 8.03854367 14.7660331 16.93728082 16.8125 29.3125 C18.67245126 50.53303806 14.50671725 69.67949817 1.0625 86.6875 C-3.78890706 92.19846391 -8.95958122 96.44896304 -15.1875 100.3125 C-16.13496094 100.92480469 -17.08242188 101.53710938 -18.05859375 102.16796875 C-26.95080267 107.32852027 -34.39937173 106.96556751 -44.203125 104.578125 C-55.006114 101.13806705 -63.97589701 93.52851341 -69.375 83.5625 C-76.24363075 68.41702549 -76.26600605 50.92684164 -70.92382812 35.24316406 C-64.55352389 18.54012496 -53.67034954 4.58681932 -37.3125 -3.125 C-24.42239081 -8.8246025 -12.28031684 -6.50134421 0 0 Z M-47.1875 11.3125 C-56.4853292 23.90428376 -57.64544396 42.94547929 -55.7265625 57.90625 C-53.68397097 68.76803084 -49.54605505 81.01086388 -40.203125 87.7421875 C-32.93577638 92.43678862 -26.80396704 93.02544645 -18.1875 92.3125 C-13.46090504 91.0826963 -10.90204359 89.24537635 -7.9375 85.375 C-4.22637576 77.72183712 -1.54082018 68.82162763 -1.1875 60.3125 C-1.1359375 59.23742187 -1.084375 58.16234375 -1.03125 57.0546875 C-0.64737793 41.73179394 -2.77689182 26.42398297 -12.47265625 14.0390625 C-17.51852158 8.95871518 -24.34890302 7.15639284 -31.3125 7 C-37.29734501 7.0866403 -42.4094533 7.44408143 -47.1875 11.3125 Z " fill="#30C48D" transform="translate(949.1875,121.6875)"/>
<path d="M0 0 C0.5878125 0.0721875 1.175625 0.144375 1.78125 0.21875 C17.70192666 1.86571655 34.0848304 1.56910123 50 0 C50.495 2.97 50.495 2.97 51 6 C49.25183142 6.50636607 47.50137737 7.00484619 45.75 7.5 C44.77546875 7.7784375 43.8009375 8.056875 42.796875 8.34375 C40 9 40 9 36 9 C40.55659213 36.54700738 46.43410646 68.86821292 59 94 C69.27901311 70.97268321 69.27901311 70.97268321 77 47 C77.26031006 46.00637451 77.26031006 46.00637451 77.52587891 44.99267578 C79.99920652 35.18498994 82.54012268 22.57935461 78.75 12.8125 C77.12746934 9.95311986 77.12746934 9.95311986 74.8125 7.875 C73 6 73 6 72.88671875 3.3828125 C72.92410156 2.59648438 72.96148438 1.81015625 73 1 C73.79059814 1.00523682 74.58119629 1.01047363 75.39575195 1.01586914 C79.03465964 1.03686642 82.6735545 1.04973177 86.3125 1.0625 C87.55580078 1.07087891 88.79910156 1.07925781 90.08007812 1.08789062 C97.44861031 1.1072306 104.67757176 0.83903809 112 0 C112 2.31 112 4.62 112 7 C111.21753906 7.20496094 110.43507813 7.40992187 109.62890625 7.62109375 C108.61699219 7.89050781 107.60507813 8.15992187 106.5625 8.4375 C105.55316406 8.70433594 104.54382812 8.97117187 103.50390625 9.24609375 C101.08247999 9.75978077 101.08247999 9.75978077 100 11 C100.02338146 12.78974475 100.05337516 14.57965731 100.11743164 16.3684082 C101.04315453 46.18184619 81.21297647 75.74755516 67 101 C70.96 102.32 74.92 103.64 79 105 C78.67 106.98 78.34 108.96 78 111 C77.31421875 110.9278125 76.6284375 110.855625 75.921875 110.78125 C62.64241826 109.60376122 49.31875164 109.90998972 36 110 C35.67 108.68 35.34 107.36 35 106 C35.66 105.690625 36.32 105.38125 37 105.0625 C39.40233544 103.02075966 39.40233544 103.02075966 39.3203125 99.19921875 C39.16097276 92.83511372 37.50683572 86.87259938 35.875 80.75 C35.70681763 80.10835907 35.53863525 79.46671814 35.36535645 78.80563354 C31.85628034 65.45205478 27.8262307 52.25191718 23.75 39.0625 C23.44640564 38.07447388 23.14281128 37.08644775 22.83001709 36.06848145 C21.95229217 33.22136754 21.06405456 30.37776979 20.171875 27.53515625 C19.91163544 26.69044266 19.65139587 25.84572906 19.38327026 24.97541809 C16.92383293 17.15111612 16.92383293 17.15111612 13 10 C9.83434055 8.4854714 9.83434055 8.4854714 6.3125 8.125 C4.20135221 7.79153728 2.09434276 7.4264631 0 7 C-1.33332095 4.3333581 -0.67102033 2.83319697 0 0 Z " fill="#30C48D" transform="translate(1580,116)"/>
<path d="M0 0 C0 1.98 0 3.96 0 6 C-2.64 6.33 -5.28 6.66 -8 7 C-8.41572266 8.87945312 -8.41572266 8.87945312 -8.83984375 10.796875 C-9.20570096 12.44792292 -9.57158793 14.09896424 -9.9375 15.75 C-10.11990234 16.575 -10.30230469 17.4 -10.49023438 18.25 C-10.66748047 19.04921875 -10.84472656 19.8484375 -11.02734375 20.671875 C-11.27085571 21.77160645 -11.27085571 21.77160645 -11.51928711 22.89355469 C-11.98553546 24.93661753 -12.48420649 26.96893762 -13 29 C-14.98 29 -16.96 29 -19 29 C-19.31319144 27.60432165 -19.62551788 26.20844918 -19.9375 24.8125 C-20.11152344 24.03519531 -20.28554687 23.25789063 -20.46484375 22.45703125 C-21.00511333 19.97652348 -21.50894372 17.49067284 -22 15 C-30.59114288 11.80683185 -39.52367477 10.24979865 -48.4375 13.1875 C-54.45701887 16.25006223 -56.92317865 19.20468898 -59.1875 25.5 C-61.15410679 31.90142455 -62.18656364 38.36407176 -63 45 C-58.84369799 47.078151 -53.44156287 46.22933682 -48.875 46.25 C-47.20050781 46.2809375 -47.20050781 46.2809375 -45.4921875 46.3125 C-38.95055628 46.34335675 -33.88384608 45.96268956 -28 43 C-27.34 42.01 -26.68 41.02 -26 40 C-24.35 40.33 -22.7 40.66 -21 41 C-21 50.24 -21 59.48 -21 69 C-22.98 69 -24.96 69 -27 69 C-28.32 65.04 -29.64 61.08 -31 57 C-41.89 57 -52.78 57 -64 57 C-63.67 57.66 -63.34 58.32 -63 59 C-62.73101027 61.1226798 -62.4847395 63.24826015 -62.25 65.375 C-61.08479685 73.77309378 -58.87041691 81.29867293 -53.625 88.0625 C-45.83927411 93.8091072 -38.53162628 93.88015017 -29 93 C-21.43246432 91.27497151 -15.80238797 86.98949304 -10 82 C-8.02 82.99 -8.02 82.99 -6 84 C-10.09671386 95.95571595 -23.77114407 103.40152977 -34.5390625 108.76171875 C-42.58944672 111.64204809 -51.70579145 109.43520727 -59.4375 106.27734375 C-69.56380764 101.22962638 -75.71895643 93.11757087 -79.875 82.6875 C-83.83882604 69.6949591 -83.5441559 53.77127687 -79 41 C-78.6596875 40.00871094 -78.319375 39.01742187 -77.96875 37.99609375 C-75.10165031 30.41184017 -71.07031658 24.29059799 -66 18 C-65.3709375 17.19433594 -64.741875 16.38867188 -64.09375 15.55859375 C-59.18371187 9.61221561 -53.743175 5.68639066 -47 2 C-46.11957031 1.47921875 -45.23914062 0.9584375 -44.33203125 0.421875 C-31.1420804 -6.34983461 -14.07667039 -2.19681371 0 0 Z " fill="#30C48D" transform="translate(1477,118)"/>
<path d="M0 0 C0.71625476 4.53628012 -0.38061386 6.88164518 -2.8125 10.5625 C-6.55155154 16.35228431 -7.79945236 22.28114569 -9 29 C-10.98 29 -12.96 29 -15 29 C-15.84681133 23.91913204 -16.09038099 19.15171623 -16 14 C-26.13107014 11.58578754 -34.32650734 10.75724006 -44 15 C-44.99 15.33 -45.98 15.66 -47 16 C-48.27882198 18.89228896 -48.80689013 21.85123633 -49 25 C-47.77401355 27.90924342 -47.77401355 27.90924342 -46 30 C-46 30.66 -46 31.32 -46 32 C-45.44054687 32.26554687 -44.88109375 32.53109375 -44.3046875 32.8046875 C-41.79831686 34.10460177 -39.48853734 35.58043912 -37.125 37.125 C-33.41594962 39.52351925 -29.67167307 41.74518689 -25.78393555 43.84155273 C-17.52359864 48.33742791 -8.25291213 53.91821679 -3.75 62.5 C-1.68831768 72.12118416 -4.86990939 79.85220903 -10 88 C-15.34207886 95.05480643 -21.74659657 100.95163121 -29 106 C-29.67160156 106.46792969 -30.34320312 106.93585938 -31.03515625 107.41796875 C-39.62907373 112.26964085 -50.99007893 109.59502593 -60.3125 108.25 C-64.44527594 107.9698118 -65.01325883 108.43993614 -68 111 C-70.6875 110.8125 -70.6875 110.8125 -73 110 C-73.33 109.34 -73.66 108.68 -74 108 C-73.54109375 107.40574219 -73.0821875 106.81148438 -72.609375 106.19921875 C-65.89832039 97.13365548 -62.82284028 88.0569654 -61 77 C-59.02 77 -57.04 77 -55 77 C-54.505 83.93 -54.505 83.93 -54 91 C-41.66979028 93.81833365 -32.43256075 95.66482084 -21.0625 89.375 C-18.07018742 85.92930672 -17.06358259 82.55410313 -17 78 C-20.7968956 69.58079672 -29.53839004 64.88889693 -37.3125 60.625 C-59.66289933 48.01130201 -59.66289933 48.01130201 -63 38 C-63.68980279 29.37746518 -61.27591624 23.26232976 -56.0625 16.5 C-51.0329951 10.67979497 -45.44305351 6.17296212 -39 2 C-38.14921875 1.43796875 -37.2984375 0.8759375 -36.421875 0.296875 C-25.57803834 -5.75704608 -11.53449131 -2.79060274 0 0 Z " fill="#30C48D" transform="translate(795,118)"/>
<path d="M0 0 C0.71625476 4.53628012 -0.38061386 6.88164518 -2.8125 10.5625 C-6.55155154 16.35228431 -7.79945236 22.28114569 -9 29 C-10.98 29 -12.96 29 -15 29 C-16.03590199 23.94997778 -16.10251672 19.12583611 -16 14 C-25.7703295 11.67175127 -34.48954678 10.46601061 -43.91796875 14.66796875 C-46.12328458 16.07887438 -47.08170344 17.05384692 -48.25 19.375 C-49.11517931 23.55669998 -48.96488029 25.23397944 -47 29 C-41.64690035 35.73454472 -33.23026413 39.80401704 -25.78613281 43.8347168 C-17.44674775 48.39994878 -7.92872361 53.98687051 -3.6875 62.875 C-1.76505001 70.09875148 -3.99677464 77.79035942 -7.5625 84.125 C-13.01461516 92.37613291 -19.65093472 99.65533321 -28 105 C-28.70125 105.49757813 -29.4025 105.99515625 -30.125 106.5078125 C-39.39083083 112.2363498 -50.06608614 109.70892648 -60.3125 108.25 C-64.44527594 107.9698118 -65.01325883 108.43993614 -68 111 C-70.6875 110.8125 -70.6875 110.8125 -73 110 C-73.33 109.34 -73.66 108.68 -74 108 C-72.70703125 105.78515625 -72.70703125 105.78515625 -70.8125 103.0625 C-65.45827046 94.90316613 -62.87076168 86.50970523 -61 77 C-59.02 77 -57.04 77 -55 77 C-54.93941406 77.84304687 -54.87882813 78.68609375 -54.81640625 79.5546875 C-54.69072266 81.19824219 -54.69072266 81.19824219 -54.5625 82.875 C-54.44068359 84.51082031 -54.44068359 84.51082031 -54.31640625 86.1796875 C-54.16998297 88.94728971 -54.16998297 88.94728971 -53 91 C-43.01375035 94.15507598 -33.68668148 95.60752265 -24 91 C-19.98013941 87.56636908 -18.22199406 85.60945692 -17.5 80.375 C-17.64008174 75.79350299 -19.21972366 73.38732913 -22.359375 70.1328125 C-27.74459008 65.78321571 -33.89670116 62.58346143 -39.91113281 59.19189453 C-59.69979794 47.90060618 -59.69979794 47.90060618 -63 38 C-63.86155781 28.00592938 -59.7116885 21.0243334 -53.39453125 13.48828125 C-49.05513016 8.97898517 -44.23145484 5.40948849 -39 2 C-38.14792969 1.43667969 -37.29585937 0.87335938 -36.41796875 0.29296875 C-25.57240976 -5.75455493 -11.53402454 -2.79048981 0 0 Z " fill="#30C48D" transform="translate(709,118)"/>
<path d="M0 0 C0.58861816 0.03029297 1.17723633 0.06058594 1.78369141 0.09179688 C31.84732556 1.57811459 61.93685627 1.40279747 92 0 C93.14306641 4.72363281 93.14306641 4.72363281 91.85546875 7.2109375 C91.30503906 7.92507812 90.75460937 8.63921875 90.1875 9.375 C85.5744939 15.84602245 84.66790383 22.24880026 84 30 C81.69 30 79.38 30 77 30 C76.01 22.08 76.01 22.08 75 14 C67.72822456 11.40293734 62.58539018 10.7749503 55 12 C54.2300693 20.61137033 53.85116336 29.13714205 53.8671875 37.78125 C53.86623077 38.95602905 53.86527405 40.13080811 53.86428833 41.34118652 C53.86361264 43.81176813 53.86542394 46.28235157 53.86962891 48.75292969 C53.87494687 52.46293299 53.86968289 56.17281308 53.86328125 59.8828125 C53.85975837 73.95179083 54.16183131 87.95542395 55 102 C56.65153076 101.98755249 56.65153076 101.98755249 58.33642578 101.97485352 C61.40637587 101.99592541 63.91211272 102.23522395 66.875 102.9375 C67.63554688 103.11152344 68.39609375 103.28554687 69.1796875 103.46484375 C71 104 71 104 72 105 C72.04080783 106.99958364 72.04254356 109.00045254 72 111 C70.45505859 110.89171875 70.45505859 110.89171875 68.87890625 110.78125 C53.16380651 109.73394939 37.70356361 109.81642051 22 111 C21.67 109.02 21.34 107.04 21 105 C25.56440054 102.79141909 30.02763634 102.43763311 35 102 C35.95951779 89.21917935 36.15554789 76.4876034 36.13037109 63.67358398 C36.12504827 60.46658513 36.13032983 57.2597288 36.13671875 54.05273438 C36.14084307 39.67987633 35.71645514 25.35454276 35 11 C33.40382669 10.98813167 31.80762777 10.97967654 30.21142578 10.97265625 C28.87810715 10.96504272 28.87810715 10.96504272 27.51785278 10.95727539 C24.55307734 11.00758368 21.77771065 11.40457218 18.875 12 C17.94429687 12.185625 17.01359375 12.37125 16.0546875 12.5625 C15.37664062 12.706875 14.69859375 12.85125 14 13 C13.86722656 14.14339844 13.73445313 15.28679687 13.59765625 16.46484375 C13.4194969 17.9557562 13.24109918 19.44664018 13.0625 20.9375 C12.93198242 22.06961914 12.93198242 22.06961914 12.79882812 23.22460938 C12.11328125 28.88671875 12.11328125 28.88671875 11 30 C9.00041636 30.04080783 6.99954746 30.04254356 5 30 C4.89042969 28.9378125 4.78085938 27.875625 4.66796875 26.78125 C3.84358612 17.89393766 3.84358612 17.89393766 1.375 9.375 C-0.04304023 5.8943558 -0.11394894 3.69816115 0 0 Z " fill="#30C48D" transform="translate(1297,116)"/>
<path d="M0 0 C20.79 0 41.58 0 63 0 C63 1.98 63 3.96 63 6 C60.64741656 6.50866669 58.29338596 7.0070625 55.9375 7.5 C55.28072266 7.64308594 54.62394531 7.78617187 53.94726562 7.93359375 C52.9659668 8.13662109 52.9659668 8.13662109 51.96484375 8.34375 C51.3730835 8.46943359 50.78132324 8.59511719 50.17163086 8.72460938 C47.1101152 9.1128488 44.08182893 9.038867 41 9 C39.94701536 21.15504854 39.62934084 33.30677062 39.375 45.5 C39.35254211 46.54625549 39.33008423 47.59251099 39.3069458 48.67047119 C39.00987843 63.08275614 38.96119963 77.46509798 39.375 91.875 C39.40699493 92.99733032 39.40699493 92.99733032 39.43963623 94.14233398 C39.76728787 105.10543013 40.35408858 116.05156094 41 127 C42.06984131 127.1330957 43.13968262 127.26619141 44.24194336 127.40332031 C50.9450447 128.24463726 57.49018054 129.14005158 64 131 C63.505 133.97 63.505 133.97 63 137 C62.44876465 136.96970703 61.8975293 136.93941406 61.32958984 136.90820312 C42.99225502 135.92537339 24.70088021 135.39268043 6.36816406 136.73193359 C4.58089155 136.85663666 2.79038424 136.93353065 1 137 C0 136 0 136 -0.0625 133.4375 C-0.0315625 132.2309375 -0.0315625 132.2309375 0 131 C6.25862041 128.73238391 12.4555272 127.18997508 19 126 C19.79172499 119.47190157 20.27883437 112.9911441 20.55078125 106.421875 C20.59262039 105.42508728 20.63445953 104.42829956 20.67756653 103.40130615 C21.10901959 92.35147918 21.19542445 81.30714576 21.1875 70.25 C21.18858765 68.68054123 21.18858765 68.68054123 21.18969727 67.07937622 C21.18824859 47.99720447 20.43432224 29.02575045 19 10 C17.66739136 9.80301514 17.66739136 9.80301514 16.30786133 9.60205078 C15.1402124 9.42657715 13.97256348 9.25110352 12.76953125 9.0703125 C11.03473511 8.81145264 11.03473511 8.81145264 9.26489258 8.54736328 C5.71159045 7.95164778 2.42012308 7.11352844 -1 6 C-0.67 4.02 -0.34 2.04 0 0 Z " fill="#30C48D" transform="translate(1106,90)"/>
<path d="M0 0 C4.02619419 3.46439965 6.6843879 7.07092942 7.6875 12.3125 C7.77623155 13.86419322 7.81535901 15.41916128 7.81689453 16.97338867 C7.82004669 17.89081345 7.82319885 18.80823822 7.82644653 19.75346375 C7.8244223 20.7358754 7.82239807 21.71828705 7.8203125 22.73046875 C7.82126923 23.74345535 7.82222595 24.75644196 7.82321167 25.80012512 C7.82389145 27.93763288 7.82205124 30.07514271 7.81787109 32.21264648 C7.81250338 35.49793073 7.81783146 38.78307929 7.82421875 42.06835938 C7.82355826 44.14322947 7.8222777 46.21809948 7.8203125 48.29296875 C7.82233673 49.28145309 7.82436096 50.26993744 7.82644653 51.28837585 C7.82171829 52.65032829 7.82171829 52.65032829 7.81689453 54.03979492 C7.81609894 54.84269455 7.81530334 55.64559418 7.81448364 56.4728241 C7.6875 58.3125 7.6875 58.3125 6.6875 59.3125 C4.02323315 59.47253488 1.38189572 59.57192889 -1.28515625 59.62890625 C-2.48162025 59.6600779 -2.48162025 59.6600779 -3.70225525 59.69187927 C-6.25974611 59.75746158 -8.8173428 59.81629967 -11.375 59.875 C-13.10482882 59.91817699 -14.83464679 59.96179101 -16.56445312 60.00585938 C-20.8136926 60.11315172 -25.0630389 60.21439426 -29.3125 60.3125 C-29.32708252 61.2912207 -29.34166504 62.26994141 -29.35668945 63.27832031 C-29.41475106 66.91654626 -29.4919826 70.55415836 -29.57495117 74.19189453 C-29.60816372 75.76503522 -29.63620717 77.33829401 -29.65893555 78.91162109 C-29.69255028 81.17596672 -29.74486624 83.43923365 -29.80078125 85.703125 C-29.81036613 86.75490936 -29.81036613 86.75490936 -29.82014465 87.82794189 C-29.94208952 91.89632774 -30.35343427 94.41617065 -33.3125 97.3125 C-35.25 97.80859375 -35.25 97.80859375 -37.3125 97.75 C-38.3334375 97.74806641 -38.3334375 97.74806641 -39.375 97.74609375 C-41.90845766 97.17913044 -42.7099644 96.34179438 -44.3125 94.3125 C-44.67999268 92.09823608 -44.67999268 92.09823608 -44.66894531 89.48974609 C-44.67194641 88.51218353 -44.67494751 87.53462097 -44.67803955 86.5274353 C-44.66569275 85.47424103 -44.65334595 84.42104675 -44.640625 83.3359375 C-44.63875183 82.25494781 -44.63687866 81.17395813 -44.63494873 80.06021118 C-44.62822481 77.77546097 -44.61430366 75.49072234 -44.59375 73.20605469 C-44.56256265 69.69455361 -44.55277689 66.1835009 -44.546875 62.671875 C-44.53770668 60.45572365 -44.52733145 58.2395769 -44.515625 56.0234375 C-44.51137512 54.96619476 -44.50712524 53.90895203 -44.50274658 52.81967163 C-44.49313904 51.84841339 -44.48353149 50.87715515 -44.47363281 49.87646484 C-44.46680481 49.01725433 -44.45997681 48.15804382 -44.45294189 47.27279663 C-44.3125 45.3125 -44.3125 45.3125 -43.3125 44.3125 C-40.44982433 44.23924832 -37.611781 44.22011795 -34.75 44.25 C-33.94369141 44.25451172 -33.13738281 44.25902344 -32.30664062 44.26367188 C-30.30856244 44.27549482 -28.31052217 44.29343086 -26.3125 44.3125 C-26.33344727 43.32443359 -26.35439453 42.33636719 -26.37597656 41.31835938 C-26.44887008 37.62091809 -26.49447694 33.92353913 -26.53222656 30.22558594 C-26.55223053 28.63107592 -26.57944301 27.03663822 -26.61425781 25.44238281 C-26.96692133 8.86719766 -26.96692133 8.86719766 -22.3125 2.3125 C-15.32624991 -3.3638282 -8.04079666 -4.0962549 0 0 Z " fill="#C8EEC7" transform="translate(218.3125,128.6875)"/>
<path d="M0 0 C0.67160156 0.0721875 1.34320312 0.144375 2.03515625 0.21875 C17.20688469 1.62825251 32.85566833 1.82383349 48 0 C48.495 3.465 48.495 3.465 49 7 C47.4811541 7.34227513 45.95977467 7.67331214 44.4375 8 C43.59058594 8.185625 42.74367188 8.37125 41.87109375 8.5625 C38.54933253 9.06867314 35.35507021 9.06635491 32 9 C30.50704846 40.01845071 30.69532291 70.97922028 32 102 C33.05445313 101.98066406 34.10890625 101.96132812 35.1953125 101.94140625 C38.3092513 101.98936219 40.87110086 102.22550314 43.875 102.9375 C44.63554688 103.11152344 45.39609375 103.28554687 46.1796875 103.46484375 C48 104 48 104 49 105 C49.04080783 106.99958364 49.04254356 109.00045254 49 111 C48.04222656 110.9278125 47.08445312 110.855625 46.09765625 110.78125 C30.65115597 109.67848918 15.43757 109.83646848 0 111 C-0.495 108.03 -0.495 108.03 -1 105 C0.41396902 104.49242138 1.83131729 103.99425075 3.25 103.5 C4.03890625 103.2215625 4.8278125 102.943125 5.640625 102.65625 C8 102 8 102 12 102 C13.11260945 87.97833303 13.15360171 73.98501688 13.13037109 59.92602539 C13.12501556 56.07369035 13.13034275 52.22147212 13.13671875 48.36914062 C13.13989562 35.21212662 12.96484823 22.12435355 12 9 C11.34805664 8.93288818 10.69611328 8.86577637 10.02441406 8.79663086 C9.27385742 8.71936768 8.52330078 8.64210449 7.75 8.5625 C6.56664062 8.44068359 6.56664062 8.44068359 5.359375 8.31640625 C3.17635361 8.02365007 1.1226818 7.57935581 -1 7 C-0.67 4.69 -0.34 2.38 0 0 Z " fill="#30C48D" transform="translate(813,116)"/>
<path d="M0 0 C1.73260472 0.09677612 3.4616439 0.2566535 5.1875 0.4375 C19.38348032 1.64267143 33.83184308 1.49701281 48 0 C48.495 2.97 48.495 2.97 49 6 C43.14315445 8.51007667 38.35995257 9.04468351 32 9 C30.69781137 22.56619523 30.84625032 36.16253296 30.86962891 49.77758789 C30.87417838 52.46218074 30.87420162 55.14670602 30.86962891 57.83129883 C30.84616184 72.58576858 30.90304006 87.28099652 32 102 C32.87245361 102.05752441 33.74490723 102.11504883 34.64379883 102.17431641 C39.82993225 102.51625927 44.22094067 102.81883377 49 105 C48.67 106.98 48.34 108.96 48 111 C47.030625 110.9278125 46.06125 110.855625 45.0625 110.78125 C29.96570134 109.71214707 15.08644745 109.87654115 0 111 C-0.495 108.03 -0.495 108.03 -1 105 C0.41396902 104.49242138 1.83131729 103.99425075 3.25 103.5 C4.03890625 103.2215625 4.8278125 102.943125 5.640625 102.65625 C8 102 8 102 12 102 C13.42460494 70.97695411 13.36207428 40.02341518 12 9 C11.39671875 8.93941406 10.7934375 8.87882812 10.171875 8.81640625 C9.37265625 8.73261719 8.5734375 8.64882812 7.75 8.5625 C6.56664062 8.44068359 6.56664062 8.44068359 5.359375 8.31640625 C3.17635361 8.02365007 1.1226818 7.57935581 -1 7 C-1.04254356 5.00045254 -1.04080783 2.99958364 -1 1 C-0.67 0.67 -0.34 0.34 0 0 Z " fill="#30C48D" transform="translate(1699,116)"/>
<path d="M0 0 C1.73260472 0.09677612 3.4616439 0.2566535 5.1875 0.4375 C19.38348032 1.64267143 33.83184308 1.49701281 48 0 C48.495 2.97 48.495 2.97 49 6 C43.14315445 8.51007667 38.35995257 9.04468351 32 9 C30.82453425 22.63834809 30.84706161 36.26348485 30.86962891 49.94360352 C30.87497407 53.79382288 30.86966432 57.64392487 30.86328125 61.49414062 C30.86001236 75.02899898 31.07514907 88.49485907 32 102 C32.87245361 102.05752441 33.74490723 102.11504883 34.64379883 102.17431641 C39.82993225 102.51625927 44.22094067 102.81883377 49 105 C48.67 106.98 48.34 108.96 48 111 C47.030625 110.9278125 46.06125 110.855625 45.0625 110.78125 C29.96570134 109.71214707 15.08644745 109.87654115 0 111 C-0.495 108.03 -0.495 108.03 -1 105 C0.41396902 104.49242138 1.83131729 103.99425075 3.25 103.5 C4.03890625 103.2215625 4.8278125 102.943125 5.640625 102.65625 C8 102 8 102 12 102 C13.62254119 71.03362886 13.54183502 39.96792039 12 9 C11.39671875 8.93941406 10.7934375 8.87882812 10.171875 8.81640625 C9.37265625 8.73261719 8.5734375 8.64882812 7.75 8.5625 C6.56664062 8.44068359 6.56664062 8.44068359 5.359375 8.31640625 C3.17635361 8.02365007 1.1226818 7.57935581 -1 7 C-1.04254356 5.00045254 -1.04080783 2.99958364 -1 1 C-0.67 0.67 -0.34 0.34 0 0 Z " fill="#30C48C" transform="translate(578,116)"/>
<path d="M0 0 C3.55073734 1.71196265 5.36617723 2.93402533 7.375 6.3125 C8.52189654 11.24415514 8.67173313 14.65653374 6.375 19.25 C3.67226478 22.37948288 1.9310322 23.71485486 -2 25 C-6.78659166 25 -9.66993055 24.60652978 -13.4375 21.625 C-16.99000083 17.98585281 -17.34458414 15.09111461 -17.2890625 10.06640625 C-16.81603804 6.6849206 -15.1444493 4.57333916 -13 2 C-8.73944999 -0.84036668 -5.00091856 -0.62997574 0 0 Z " fill="#C9EFC7" transform="translate(138,92)"/>
<path d="M0 0 C2.64577713 2.64577713 3.84567773 4.46219213 4.22265625 8.21875 C4.03876203 12.63221116 3.3261905 14.61016258 0.4375 18.0625 C-3.66706584 20.37598256 -6.4070603 21.10486223 -11 20 C-14.41184222 18.07696166 -16.42958014 16.65940323 -17.73046875 12.875 C-18.43932032 8.72014724 -18.20578454 6.45272599 -16.4375 2.5625 C-11.57020774 -2.554397 -6.21248269 -2.96774651 0 0 Z " fill="#C8EFC6" transform="translate(213,100)"/>
</svg>
